<svg width="26" height="26" viewBox="0 0 26 26" fill="none" xmlns="http://www.w3.org/2000/svg">
<path d="M3.625 13C3.625 15.4864 4.61272 17.871 6.37087 19.6291C8.12903 21.3873 10.5136 22.375 13 22.375C15.4864 22.375 17.871 21.3873 19.6291 19.6291C21.3873 17.871 22.375 15.4864 22.375 13C22.375 10.5136 21.3873 8.12903 19.6291 6.37087C17.871 4.61272 15.4864 3.625 13 3.625" stroke="white" stroke-width="2" stroke-linecap="round" stroke-linejoin="round"/>
<path d="M18.2084 13C18.2084 11.9699 17.9029 10.9629 17.3306 10.1064C16.7583 9.2499 15.9449 8.58233 14.9932 8.18813C14.0415 7.79392 12.9942 7.69078 11.9839 7.89174C10.9736 8.09271 10.0456 8.58875 9.31718 9.31715C8.58878 10.0456 8.09273 10.9736 7.89177 11.9839C7.6908 12.9942 7.79394 14.0414 8.18815 14.9931C8.58236 15.9448 9.24992 16.7583 10.1064 17.3306C10.9629 17.9029 11.9699 18.2083 13 18.2083" stroke="white" stroke-width="2" stroke-linecap="round" stroke-linejoin="round"/>
<mask id="path-3-inside-1_9_100" fill="white">
<path fill-rule="evenodd" clip-rule="evenodd" d="M14.6401 10.325L13.4897 9.95673L13.0424 11.3541L12.3718 10.0522L11.298 10.6053L11.9667 11.9036L10.5749 11.4581L10.2067 12.6085L11.6041 13.0557L10.3021 13.7264L10.8551 14.8002L12.1534 14.1315L11.708 15.5231L12.8584 15.8914L13.3038 14.4996L13.9742 15.8012L15.048 15.2481L14.3758 13.9429L15.7731 14.3902L16.1413 13.2398L14.7496 12.7943L16.051 12.124L15.498 11.0502L14.1928 11.7224L14.6401 10.325Z"/>
</mask>
<path fill-rule="evenodd" clip-rule="evenodd" d="M14.6401 10.325L13.4897 9.95673L13.0424 11.3541L12.3718 10.0522L11.298 10.6053L11.9667 11.9036L10.5749 11.4581L10.2067 12.6085L11.6041 13.0557L10.3021 13.7264L10.8551 14.8002L12.1534 14.1315L11.708 15.5231L12.8584 15.8914L13.3038 14.4996L13.9742 15.8012L15.048 15.2481L14.3758 13.9429L15.7731 14.3902L16.1413 13.2398L14.7496 12.7943L16.051 12.124L15.498 11.0502L14.1928 11.7224L14.6401 10.325Z" fill="white"/>
<path d="M13.4897 9.95673L13.6039 9.59991L13.2471 9.4857L13.1329 9.84252L13.4897 9.95673ZM14.6401 10.325L14.9969 10.4392L15.1111 10.0823L14.7543 9.96813L14.6401 10.325ZM13.0424 11.3541L12.7093 11.5257L13.1235 12.3298L13.3992 11.4683L13.0424 11.3541ZM12.3718 10.0522L12.7049 9.88068L12.5334 9.54761L12.2003 9.71916L12.3718 10.0522ZM11.298 10.6053L11.1265 10.2722L10.7934 10.4438L10.9649 10.7769L11.298 10.6053ZM11.9667 11.9036L11.8525 12.2604L12.7139 12.5361L12.2998 11.732L11.9667 11.9036ZM10.5749 11.4581L10.6891 11.1013L10.3323 10.9871L10.2181 11.3439L10.5749 11.4581ZM10.2067 12.6085L9.84988 12.4943L9.73566 12.8511L10.0925 12.9653L10.2067 12.6085ZM11.6041 13.0557L11.7756 13.3888L12.5797 12.9747L11.7183 12.6989L11.6041 13.0557ZM10.3021 13.7264L10.1305 13.3933L9.79744 13.5648L9.96899 13.8979L10.3021 13.7264ZM10.8551 14.8002L10.5221 14.9717L10.6936 15.3048L11.0267 15.1332L10.8551 14.8002ZM12.1534 14.1315L12.5102 14.2457L12.786 13.3842L11.9819 13.7984L12.1534 14.1315ZM11.708 15.5231L11.3512 15.4089L11.2369 15.7658L11.5938 15.88L11.708 15.5231ZM12.8584 15.8914L12.7442 16.2482L13.101 16.3624L13.2152 16.0056L12.8584 15.8914ZM13.3038 14.4996L13.6369 14.3281L13.2227 13.524L12.947 14.3854L13.3038 14.4996ZM13.9742 15.8012L13.6411 15.9728L13.8127 16.3058L14.1458 16.1343L13.9742 15.8012ZM15.048 15.2481L15.2196 15.5812L15.5527 15.4096L15.3811 15.0766L15.048 15.2481ZM14.3758 13.9429L14.49 13.5861L13.6285 13.3104L14.0427 14.1145L14.3758 13.9429ZM15.7731 14.3902L15.6589 14.747L16.0157 14.8612L16.1299 14.5044L15.7731 14.3902ZM16.1413 13.2398L16.4981 13.354L16.6124 12.9972L16.2555 12.883L16.1413 13.2398ZM14.7496 12.7943L14.578 12.4612L13.7739 12.8754L14.6354 13.1511L14.7496 12.7943ZM16.051 12.124L16.2226 12.457L16.5557 12.2855L16.3841 11.9524L16.051 12.124ZM15.498 11.0502L15.831 10.8786L15.6595 10.5455L15.3264 10.7171L15.498 11.0502ZM14.1928 11.7224L13.8359 11.6082L13.5602 12.4696L14.3643 12.0555L14.1928 11.7224ZM13.3755 10.3136L14.5259 10.6818L14.7543 9.96813L13.6039 9.59991L13.3755 10.3136ZM13.3992 11.4683L13.8465 10.0709L13.1329 9.84252L12.6856 11.2399L13.3992 11.4683ZM12.0388 10.2238L12.7093 11.5257L13.3755 11.1826L12.7049 9.88068L12.0388 10.2238ZM11.4696 10.9384L12.5434 10.3853L12.2003 9.71916L11.1265 10.2722L11.4696 10.9384ZM12.2998 11.732L11.6311 10.4338L10.9649 10.7769L11.6336 12.0751L12.2998 11.732ZM10.4607 11.8149L11.8525 12.2604L12.0809 11.5467L10.6891 11.1013L10.4607 11.8149ZM10.5635 12.7227L10.9317 11.5723L10.2181 11.3439L9.84988 12.4943L10.5635 12.7227ZM11.7183 12.6989L10.3209 12.2517L10.0925 12.9653L11.4898 13.4126L11.7183 12.6989ZM10.4736 14.0594L11.7756 13.3888L11.4325 12.7227L10.1305 13.3933L10.4736 14.0594ZM11.1882 14.6286L10.6351 13.5548L9.96899 13.8979L10.5221 14.9717L11.1882 14.6286ZM11.9819 13.7984L10.6836 14.4671L11.0267 15.1332L12.325 14.4645L11.9819 13.7984ZM12.0648 15.6374L12.5102 14.2457L11.7966 14.0173L11.3512 15.4089L12.0648 15.6374ZM12.9726 15.5345L11.8222 15.1663L11.5938 15.88L12.7442 16.2482L12.9726 15.5345ZM12.947 14.3854L12.5015 15.7772L13.2152 16.0056L13.6607 14.6139L12.947 14.3854ZM14.3073 15.6297L13.6369 14.3281L12.9708 14.6712L13.6411 15.9728L14.3073 15.6297ZM14.8765 14.9151L13.8027 15.4681L14.1458 16.1343L15.2196 15.5812L14.8765 14.9151ZM14.0427 14.1145L14.715 15.4197L15.3811 15.0766L14.7088 13.7714L14.0427 14.1145ZM15.8873 14.0334L14.49 13.5861L14.2616 14.2997L15.6589 14.747L15.8873 14.0334ZM15.7845 13.1256L15.4163 14.276L16.1299 14.5044L16.4981 13.354L15.7845 13.1256ZM14.6354 13.1511L16.0271 13.5966L16.2555 12.883L14.8638 12.4375L14.6354 13.1511ZM15.8795 11.7909L14.578 12.4612L14.9211 13.1274L16.2226 12.457L15.8795 11.7909ZM15.1649 11.2217L15.718 12.2955L16.3841 11.9524L15.831 10.8786L15.1649 11.2217ZM14.3643 12.0555L15.6695 11.3832L15.3264 10.7171L14.0212 11.3893L14.3643 12.0555ZM14.2832 10.2107L13.8359 11.6082L14.5496 11.8366L14.9969 10.4392L14.2832 10.2107Z" fill="#0E0E0E" mask="url(#path-3-inside-1_9_100)"/>
</svg>
